<?xml version="1.0" encoding="utf-8"?>
<!-- Generator: Adobe Illustrator 16.0.4, SVG Export Plug-In . SVG Version: 6.00 Build 0)  -->
<!DOCTYPE svg PUBLIC "-//W3C//DTD SVG 1.1//EN" "http://www.w3.org/Graphics/SVG/1.1/DTD/svg11.dtd">
<svg version="1.1" id="レイヤー_1" xmlns="http://www.w3.org/2000/svg" xmlns:xlink="http://www.w3.org/1999/xlink" x="0px"
	 y="0px" width="600px" height="96px" viewBox="0 0 600 96" enable-background="new 0 0 600 96" xml:space="preserve">
<g>
	<path fill="#231815" d="M239.108,67.678h-7.667v-17.93h-10.117v17.93h-7.667V26.787h7.667v16.251h10.117V26.787h7.667V67.678z"/>
	<path fill="#231815" d="M259.032,67.678h-7.639V33.471h-7.889v-6.684h23.418v6.684h-7.891V67.678z"/>
	<path fill="#231815" d="M286.03,67.678l-7.834-34.822h-0.31c0.356,2.685,0.535,5.147,0.535,7.384v27.438h-7.103V26.787H283.1
		l7.045,32.138h0.225l6.988-32.138h11.951v40.891h-7.273V39.959c0-2.294,0.133-4.641,0.397-7.048h-0.229l-7.806,34.766H286.03z"/>
	<path fill="#231815" d="M316.579,67.678V26.787h7.667v34.234h10.623v6.656H316.579z"/>
	<path fill="#231815" d="M350.229,42.084c3.102,0,5.568,1.073,7.398,3.218c1.831,2.145,2.748,5.082,2.748,8.809
		c0,4.457-1.143,7.927-3.427,10.404c-2.28,2.481-5.452,3.722-9.511,3.722c-3.608,0-6.528-0.679-8.763-2.041v-7.104
		c0.957,0.69,2.191,1.3,3.705,1.831c1.513,0.532,2.916,0.798,4.214,0.798c4.038,0,6.058-2.329,6.058-6.993
		c0-4.344-1.963-6.517-5.889-6.517c-1.56,0-3.215,0.299-4.959,0.896l-2.483-1.819l1.271-20.5h17.585v6.796h-11.021l-0.562,8.839
		C347.647,42.197,348.858,42.084,350.229,42.084z"/>
	<path fill="#231815" d="M399.322,67.678h-18.571V26.787h18.571v6.571h-10.907v9.734h10.116v6.601h-10.116v11.328h10.907V67.678z"/>
	<path fill="#231815" d="M410.287,51.763l-7.836-15.243h7.779l4.171,9.509l3.86-9.509h7.72l-7.889,15.243l8.229,15.915h-7.836
		l-4.452-9.958l-4.142,9.958h-7.809L410.287,51.763z"/>
	<path fill="#231815" d="M443.937,68.237c-1.354,0-2.552-0.304-3.595-0.907c-1.043-0.607-2.016-1.676-2.916-3.205h-0.395
		c0.298,2.538,0.45,4.065,0.45,4.589v12.725h-7.554V36.52h5.81l1.294,4.055h0.338c1.56-3.095,3.823-4.643,6.793-4.643
		c2.856,0,5.092,1.402,6.707,4.209c1.615,2.807,2.423,6.773,2.423,11.9c0,5.056-0.837,9.018-2.509,11.888
		C449.111,66.804,446.827,68.237,443.937,68.237z M441.626,42.253c-1.466,0-2.525,0.675-3.171,2.029
		c-0.649,1.351-0.993,3.593-1.029,6.723v0.98c0,3.433,0.327,5.931,0.986,7.496c0.658,1.567,1.748,2.349,3.268,2.349
		c2.632,0,3.945-3.301,3.945-9.901c0-3.244-0.324-5.667-0.97-7.27C444.007,43.055,442.993,42.253,441.626,42.253z"/>
	<path fill="#231815" d="M470.146,68.237c-3.93,0-7.024-1.384-9.286-4.153c-2.264-2.77-3.399-6.688-3.399-11.76
		c0-5.148,1.026-9.167,3.075-12.057c2.046-2.89,4.903-4.335,8.567-4.335c3.42,0,6.114,1.237,8.088,3.706
		c1.973,2.471,2.959,5.936,2.959,10.391V54H465.07c0.057,2.779,0.633,4.846,1.722,6.196c1.089,1.352,2.592,2.029,4.509,2.029
		c2.443,0,4.942-0.757,7.495-2.269v6.126C476.393,67.519,473.509,68.237,470.146,68.237z M469.046,41.666
		c-1.072,0-1.956,0.564-2.651,1.693c-0.691,1.127-1.096,2.875-1.211,5.243h7.61c-0.036-2.274-0.384-3.999-1.043-5.174
		S470.191,41.666,469.046,41.666z"/>
	<path fill="#231815" d="M498.494,35.932c0.92,0,1.824,0.139,2.704,0.419l-0.873,7.217c-0.526-0.187-1.209-0.278-2.057-0.278
		c-1.82,0-3.221,0.712-4.197,2.139c-0.979,1.427-1.467,3.5-1.467,6.223v16.026h-7.498V36.52h6.171l0.848,4.866h0.255
		c0.824-1.957,1.728-3.357,2.704-4.194C496.061,36.351,497.196,35.932,498.494,35.932z"/>
	<path fill="#231815" d="M515.458,61.943c1.053,0,2.188-0.261,3.41-0.781v5.816c-1.222,0.84-3.056,1.259-5.495,1.259
		c-2.724,0-4.742-0.805-6.057-2.419c-1.317-1.613-1.973-4.033-1.973-7.258V42.422h-3.046v-3.331l3.919-2.685l1.917-6.601h4.785
		v6.714h5.694v5.902h-5.694v16.39C512.919,60.901,513.767,61.943,515.458,61.943z"/>
	<path fill="#231815" d="M540.117,58.561c0,3.039-0.896,5.412-2.691,7.117c-1.794,1.707-4.439,2.56-7.935,2.56
		c-3.099,0-5.664-0.606-7.693-1.817v-6.463c1.032,0.711,2.241,1.298,3.625,1.764c1.377,0.467,2.595,0.7,3.645,0.7
		c1.169,0,2.053-0.285,2.665-0.854c0.612-0.567,0.917-1.317,0.917-2.251c0-0.95-0.321-1.781-0.957-2.489
		c-0.639-0.709-1.813-1.576-3.525-2.603c-2.274-1.342-3.903-2.773-4.89-4.293c-0.983-1.52-1.479-3.314-1.479-5.385
		c0-2.646,0.917-4.746,2.747-6.293c1.834-1.548,4.347-2.321,7.541-2.321c2.781,0,5.399,0.727,7.862,2.182l-2.452,5.341
		c-2.01-1.079-3.774-1.622-5.297-1.622c-0.96,0-1.679,0.251-2.158,0.756c-0.478,0.503-0.719,1.117-0.719,1.846
		c0,0.839,0.298,1.585,0.891,2.238c0.589,0.652,1.694,1.463,3.311,2.434c1.953,1.175,3.323,2.171,4.114,2.992
		c0.788,0.821,1.4,1.751,1.831,2.797C539.902,55.94,540.117,57.16,540.117,58.561z"/>
	<path fill="#231815" d="M544.795,63.848c0-1.455,0.391-2.583,1.172-3.387c0.778-0.802,1.94-1.202,3.477-1.202
		c1.542,0,2.707,0.396,3.495,1.188c0.791,0.795,1.186,1.927,1.186,3.4c0,1.453-0.407,2.582-1.229,3.383
		c-0.814,0.801-1.966,1.202-3.452,1.202c-1.52,0-2.676-0.404-3.467-1.216C545.189,66.406,544.795,65.282,544.795,63.848z"/>
	<path fill="#231815" d="M559.503,81.438c-1.575,0-2.883-0.231-3.913-0.698V74.56c0.861,0.335,1.672,0.503,2.424,0.503
		c1.765,0,2.645-1.585,2.645-4.755V36.52h7.498v34.766c0,3.245-0.754,5.748-2.271,7.511
		C564.376,80.559,562.251,81.438,559.503,81.438z M560.381,28.379c0-1.229,0.357-2.205,1.082-2.923
		c0.725-0.717,1.725-1.076,3.003-1.076c1.261,0,2.247,0.363,2.959,1.089c0.715,0.729,1.069,1.698,1.069,2.91
		c0,1.248-0.364,2.23-1.096,2.938c-0.734,0.708-1.711,1.061-2.933,1.061s-2.208-0.344-2.956-1.033
		C560.755,30.654,560.381,29.667,560.381,28.379z"/>
	<path fill="#231815" d="M588.532,68.237c-1.351,0-2.549-0.304-3.592-0.907c-1.043-0.607-2.013-1.676-2.917-3.205h-0.394
		c0.298,2.538,0.45,4.065,0.45,4.589v12.725h-7.555V36.52h5.807l1.298,4.055h0.338c1.559-3.095,3.823-4.643,6.789-4.643
		c2.857,0,5.092,1.402,6.711,4.209c1.615,2.807,2.423,6.773,2.423,11.9c0,5.056-0.838,9.018-2.51,11.888
		C593.71,66.804,591.426,68.237,588.532,68.237z M586.222,42.253c-1.464,0-2.522,0.675-3.168,2.029
		c-0.652,1.351-0.993,3.593-1.03,6.723v0.98c0,3.433,0.331,5.931,0.983,7.496c0.662,1.567,1.751,2.349,3.271,2.349
		c2.632,0,3.946-3.301,3.946-9.901c0-3.244-0.324-5.667-0.97-7.27C588.605,43.055,587.596,42.253,586.222,42.253z"/>
</g>
<polygon fill-rule="evenodd" clip-rule="evenodd" fill="#E44D26" points="47.835,47.647 47.835,47.654 94.445,94.255 73.26,47.645 
	22.413,47.645 1.241,94.255 "/>
<g>
	<polygon fill="#F16529" points="1.241,1.049 22.421,47.651 73.269,47.651 94.445,1.049 47.842,47.654 47.842,47.647 	"/>
</g>
<polygon fill-rule="evenodd" clip-rule="evenodd" fill="#369CD6" points="197.508,1.05 150.896,22.234 150.896,73.082 
	197.508,94.255 150.894,47.661 150.899,47.661 "/>
<g>
	<polygon fill="#2162AF" points="104.302,94.255 150.903,73.075 150.903,22.227 104.302,1.05 150.906,47.654 150.901,47.654 	"/>
</g>
</svg>
