<?xml version="1.0" encoding="iso-8859-1"?>
<!-- Generator: Adobe Illustrator 16.2.1, SVG Export Plug-In . SVG Version: 6.00 Build 0)  -->
<!DOCTYPE svg PUBLIC "-//W3C//DTD SVG 1.1//EN" "http://www.w3.org/Graphics/SVG/1.1/DTD/svg11.dtd">
<svg version="1.1" id="&#x30EC;&#x30A4;&#x30E4;&#x30FC;_1"
	 xmlns="http://www.w3.org/2000/svg" xmlns:xlink="http://www.w3.org/1999/xlink" x="0px" y="0px" width="491.717px"
	 height="140.937px" viewBox="0 0 491.717 140.937" style="enable-background:new 0 0 491.717 140.937;" xml:space="preserve">
<g>
	<path d="M236.355,3c135.068,0,192.741,0.565,214.02,6.915c38.341,11.439,38.24,42.199,38.341,73.947
		c0.111,35.235-10.715,41.67-40.154,46.962c-27.987,5.033-145.309,7.112-211.812,7.112c-66.506,0-167.082-1.158-198.625-8.105
		C6.583,122.889,4.339,105.606,3.078,79.232C1.832,53.105,15.093,22.017,40.129,13.087C59.731,6.095,110.618,3,236.355,3z"/>
	<path style="fill:#FFFFFF;" d="M236.75,140.937c-73.972,0-168.589-1.418-199.27-8.176C4.633,125.531,1.439,107.77,0.082,79.375
		c-1.255-26.307,12-59.47,39.04-69.114C59.823,2.877,115.122,0,236.355,0c138.826,0,193.318,0.607,214.877,7.041
		c40.28,12.018,40.383,44.709,40.481,76.325l0.002,0.488c0.12,38.071-13.56,44.7-42.623,49.924
		C421.633,138.715,308.391,140.937,236.75,140.937z M236.355,6C115.869,6,61.135,8.779,41.137,15.913
		C22.987,22.386,4.531,46.728,6.075,79.089c1.253,26.215,3.39,41.362,32.696,47.812c30.154,6.641,124.306,8.035,197.979,8.035
		c71.418,0,184.184-2.192,211.28-7.064c27.436-4.933,37.793-10.003,37.686-44l-0.002-0.487
		c-0.101-32.115-0.188-59.851-36.196-70.594C428.821,6.614,371.658,6,236.355,6z"/>
</g>
<g>
	<path style="fill:#FFFFFF;" d="M139.335,83.353c3.01,4.167,5.348,7.724,7.015,10.669c14.285-14.093,21.719-29.503,22.295-46.225
		v-2.883c0-0.96-0.479-1.441-1.441-1.441h-15.856h-23.833c-1.409,0-2.114-0.704-2.114-2.114c0-1.472,0.705-2.21,2.114-2.21h42.571
		c1.924,0,2.885,0.962,2.885,2.884v5.765c0.126,17.364-7.944,34.087-24.217,50.164c1.408,2.437,2.945,6.215,4.612,11.339
		c0.513,1.28,0.158,2.242-1.058,2.884c-1.281,0.577-2.242,0.256-2.883-0.962c-3.651-9.671-8.299-18.227-13.935-25.657
		c-0.576-1.216-0.256-2.147,0.961-2.786C137.476,82.267,138.438,82.458,139.335,83.353z"/>
	<path style="fill:#898989;" d="M170.085,39.148c1.924,0,2.885,0.962,2.885,2.884v5.765c0.126,17.364-7.944,34.087-24.217,50.164
		c1.408,2.437,2.945,6.215,4.612,11.339c0.513,1.28,0.158,2.242-1.058,2.884c-0.411,0.187-0.79,0.277-1.136,0.277
		c-0.73,0-1.312-0.414-1.747-1.239c-3.651-9.671-8.299-18.227-13.935-25.657c-0.576-1.216-0.256-2.147,0.961-2.786
		c0.374-0.186,0.737-0.279,1.093-0.279c0.624,0,1.22,0.285,1.791,0.854c3.01,4.167,5.348,7.724,7.015,10.669
		c14.285-14.093,21.719-29.503,22.295-46.225v-2.883c0-0.96-0.479-1.441-1.441-1.441h-15.856h-23.833
		c-1.409,0-2.114-0.704-2.114-2.114c0-1.472,0.705-2.21,2.114-2.21H170.085 M170.085,35.727h-42.571
		c-3.311,0-5.536,2.263-5.536,5.632c0,3.312,2.226,5.537,5.536,5.537h23.833h13.876v0.842c-0.515,14.502-6.649,28.182-18.244,40.721
		c-1.378-2.151-3.006-4.528-4.87-7.107l-0.162-0.225l-0.194-0.194c-1.534-1.531-3.136-1.856-4.208-1.856
		c-0.89,0-1.772,0.217-2.622,0.641l-0.032,0.016l-0.03,0.016c-2.832,1.49-3.82,4.418-2.461,7.283l0.151,0.321l0.214,0.282
		c5.413,7.136,9.941,15.479,13.459,24.799l0.075,0.196l0.099,0.188c1.026,1.947,2.768,3.067,4.775,3.067
		c0.832,0,1.686-0.196,2.54-0.579l0.098-0.047l0.095-0.049c2.726-1.438,3.771-4.197,2.686-7.059
		c-1.287-3.946-2.491-7.103-3.651-9.552c15.692-16.152,23.582-33.242,23.453-50.826v-5.741
		C176.392,38.201,173.917,35.727,170.085,35.727L170.085,35.727z"/>
</g>
<g>
	<path style="fill:#FFFFFF;" d="M183.377,36.362c0.639-1.281,1.602-1.57,2.882-0.865l16.625,9.129
		c1.216,0.642,1.506,1.571,0.865,2.787c-0.706,1.345-1.665,1.667-2.884,0.962l-16.624-9.034c-1.28-0.705-1.57-1.666-0.864-2.883
		V36.362z M225.563,62.887c0.256-1.41,1.089-2.114,2.498-2.114c1.475,0,2.212,1.087,2.212,3.267
		c-9.548,20.498-22.392,36.325-38.536,47.473l-2.211,1.153c-1.667,0-2.497-0.706-2.497-2.113c0-1.475,0.703-2.468,2.114-2.979
		C204.453,96.937,216.594,82.044,225.563,62.887z"/>
	<path style="fill:#898989;" d="M185.016,35.122c0.374,0,0.789,0.126,1.243,0.375l16.625,9.129c1.216,0.642,1.506,1.571,0.865,2.787
		c-0.464,0.883-1.035,1.325-1.719,1.325c-0.357,0-0.746-0.122-1.165-0.363l-16.624-9.034c-1.28-0.705-1.57-1.666-0.864-2.883v-0.096
		C183.79,35.536,184.335,35.122,185.016,35.122 M228.062,60.772c1.475,0,2.212,1.087,2.212,3.267
		c-9.548,20.498-22.392,36.325-38.536,47.473l-2.211,1.153c-1.667,0-2.497-0.706-2.497-2.113c0-1.475,0.703-2.468,2.114-2.979
		c15.31-10.636,27.45-25.528,36.42-44.686C225.819,61.477,226.652,60.772,228.062,60.772 M185.016,31.7L185.016,31.7
		c-1.993,0-3.708,1.143-4.701,3.135l-0.359,0.721V35.7c-0.521,1.354-0.413,2.501-0.195,3.281c0.27,0.97,0.98,2.341,2.834,3.358
		l16.604,9.022c0.93,0.529,1.882,0.797,2.833,0.797c1.155,0,3.309-0.408,4.749-3.155c1.521-2.888,0.609-5.854-2.269-7.389
		l-16.604-9.117C186.944,31.968,185.972,31.7,185.016,31.7L185.016,31.7z M228.062,57.349c-2.893,0-5.058,1.682-5.756,4.424
		c-8.592,18.218-20.3,32.609-34.803,42.771c-2.484,1.083-3.896,3.248-3.896,6.008c0,3.823,2.972,5.535,5.919,5.535h0.84l0.742-0.388
		l2.211-1.154l0.188-0.098l0.174-0.119c16.573-11.442,29.929-27.877,39.693-48.845l0.321-0.687v-0.758
		C233.695,60.953,232.22,57.349,228.062,57.349L228.062,57.349z"/>
</g>
<g>
	<path style="fill:#FFFFFF;" d="M234.307,45.587c0-1.408,0.705-2.114,2.116-2.114h13.738c0.963,0,1.443-0.481,1.443-1.44v-5.093
		c0-1.41,0.704-2.114,2.116-2.114c1.469,0,2.209,0.704,2.209,2.114v5.093c0,0.959,0.48,1.44,1.442,1.44h21.62
		c1.922,0,2.884,0.962,2.884,2.884v64.195c0,1.407-0.708,2.113-2.115,2.113c-1.475,0-2.209-0.706-2.209-2.113V49.239
		c0-0.961-0.48-1.442-1.44-1.442h-18.739c-0.962,0-1.442,0.481-1.442,1.442v7.208c-0.259,22.167-6.12,40.649-17.587,55.449
		c-1.92,0.769-3.268,0.445-4.036-0.962c0-1.475,0.705-2.721,2.116-3.748c10.312-14.673,15.373-31.583,15.182-50.739v-7.208
		c0-0.961-0.48-1.442-1.443-1.442h-13.738c-1.411,0-2.116-0.703-2.116-2.114V45.587z M268.805,32.613
		c0-1.408,0.703-2.113,2.115-2.113c1.475,0,2.209,0.705,2.209,2.113v4.42c0,1.411-0.703,2.115-2.113,2.115
		c-1.472,0-2.211-0.704-2.211-2.115V32.613z M277.454,32.613c0-1.408,0.706-2.113,2.115-2.113c1.475,0,2.209,0.705,2.209,2.113v4.42
		c0,1.411-0.703,2.115-2.113,2.115c-1.475,0-2.211-0.704-2.211-2.115V32.613z"/>
	<path style="fill:#898989;" d="M279.569,30.5c1.475,0,2.209,0.705,2.209,2.113v4.42c0,1.411-0.703,2.115-2.113,2.115
		c-1.475,0-2.211-0.704-2.211-2.115v-4.42C277.454,31.205,278.16,30.5,279.569,30.5 M270.92,30.5c1.475,0,2.209,0.705,2.209,2.113
		v4.42c0,1.411-0.703,2.115-2.113,2.115c-1.472,0-2.211-0.704-2.211-2.115v-4.42C268.805,31.205,269.508,30.5,270.92,30.5
		 M253.721,34.825c1.469,0,2.209,0.704,2.209,2.114v5.093c0,0.959,0.48,1.44,1.442,1.44h21.62c1.922,0,2.884,0.962,2.884,2.884
		v64.195c0,1.407-0.708,2.113-2.115,2.113c-1.475,0-2.209-0.706-2.209-2.113V49.239c0-0.961-0.48-1.442-1.44-1.442h-18.739
		c-0.962,0-1.442,0.481-1.442,1.442v7.208c-0.259,22.167-6.12,40.649-17.587,55.449c-0.678,0.27-1.284,0.406-1.818,0.406
		c-0.981,0-1.72-0.458-2.218-1.368c0-1.475,0.705-2.721,2.116-3.748c10.312-14.673,15.373-31.583,15.182-50.739v-7.208
		c0-0.961-0.48-1.442-1.443-1.442h-13.738c-1.411,0-2.116-0.703-2.116-2.114v-0.096c0-1.408,0.705-2.114,2.116-2.114h13.738
		c0.963,0,1.443-0.481,1.443-1.44v-5.093C251.604,35.529,252.309,34.825,253.721,34.825 M279.569,27.077
		c-1.82,0-3.311,0.674-4.288,1.829c-0.991-1.155-2.509-1.829-4.361-1.829c-3.311,0-5.534,2.226-5.534,5.536v4.42
		c0,1.155,0.273,2.177,0.773,3.019h-6.808v-3.112c0-3.312-2.264-5.536-5.631-5.536c-3.313,0-5.538,2.224-5.538,5.536v3.112h-11.76
		c-3.312,0-5.538,2.225-5.538,5.535v0.096c0,3.312,2.226,5.538,5.538,5.538h11.76v5.227c0.184,18.185-4.618,34.439-14.27,48.354
		c-2.487,2.044-3.028,4.438-3.028,6.133v0.874l0.418,0.763c1.091,2.005,2.995,3.153,5.222,3.153c0.97,0,2.009-0.22,3.09-0.651
		l0.863-0.347l0.569-0.734c11.882-15.333,18.04-34.68,18.305-57.505v-5.267h14.776v59.331c0,3.311,2.266,5.535,5.633,5.535
		c3.311,0,5.535-2.225,5.535-5.535V46.356c0-2.114-0.75-3.815-2.069-4.916c1.244-0.968,1.976-2.51,1.976-4.407v-4.42
		C285.202,29.303,282.937,27.077,279.569,27.077L279.569,27.077z"/>
</g>
<g>
	<path style="fill:#FFFFFF;" d="M339.44,60.772c1.406,0,2.113,0.704,2.113,2.114c0,1.473-0.707,2.208-2.113,2.208h-18.069
		c-0.957,0-1.438,0.481-1.438,1.441v2.884c-0.13,17.362-5.639,31.268-16.533,41.706l-1.438,1.153
		c-2.181,0.513-3.398-0.064-3.655-1.728c0-1.475,0.707-2.338,2.116-2.597l1.058-1.153c9.608-10.377,14.318-22.839,14.127-37.382
		v-2.884c0-0.96-0.48-1.441-1.443-1.441H296.1c-1.41,0-2.113-0.735-2.113-2.208c0-1.41,0.703-2.114,2.113-2.114H339.44z
		 M296.387,41.263c0-1.408,0.703-2.114,2.115-2.114h38.533c1.412,0,2.115,0.706,2.115,2.114c0,1.474-0.703,2.21-2.115,2.21h-38.533
		c-1.412,0-2.115-0.704-2.115-2.114V41.263z"/>
	<path style="fill:#898989;" d="M337.035,39.148c1.412,0,2.115,0.706,2.115,2.114c0,1.474-0.703,2.21-2.115,2.21h-38.533
		c-1.412,0-2.115-0.704-2.115-2.114v-0.096c0-1.408,0.703-2.114,2.115-2.114H337.035 M339.44,60.772
		c1.406,0,2.113,0.704,2.113,2.114c0,1.473-0.707,2.208-2.113,2.208h-18.069c-0.957,0-1.438,0.481-1.438,1.441v2.884
		c-0.13,17.362-5.639,31.268-16.533,41.706l-1.438,1.153c-0.513,0.122-0.973,0.182-1.376,0.182c-1.324,0-2.085-0.637-2.279-1.909
		c0-1.475,0.707-2.338,2.116-2.597l1.058-1.153c9.608-10.377,14.318-22.839,14.127-37.382v-2.884c0-0.96-0.48-1.441-1.443-1.441
		H296.1c-1.41,0-2.113-0.735-2.113-2.208c0-1.41,0.703-2.114,2.113-2.114H339.44 M337.035,35.727h-38.533
		c-3.311,0-5.535,2.226-5.535,5.536v0.096c0,3.312,2.225,5.537,5.535,5.537h38.533c3.311,0,5.537-2.263,5.537-5.633
		C342.572,37.952,340.346,35.727,337.035,35.727L337.035,35.727z M339.44,57.349H296.1c-3.313,0-5.538,2.226-5.538,5.538
		c0,3.368,2.225,5.632,5.538,5.632h16.085v0.901v0.021v0.023c0.184,13.759-4.139,25.212-13.215,35.014l-0.426,0.466
		c-2.287,0.893-3.658,2.943-3.658,5.607v0.259l0.042,0.259c0.447,2.925,2.669,4.813,5.659,4.813c0.675,0,1.381-0.086,2.157-0.272
		l0.75-0.176l0.604-0.48l1.441-1.153l0.119-0.096l0.11-0.106c11.53-11.057,17.448-25.911,17.583-44.153v-0.927h16.088
		c3.311,0,5.535-2.264,5.535-5.632C344.976,59.574,342.751,57.349,339.44,57.349L339.44,57.349z"/>
</g>
<g>
	<path style="fill:#FFFFFF;" d="M355.008,36.939c0-1.41,0.704-2.114,2.113-2.114c1.475,0,2.211,0.704,2.211,2.114v70.633
		c14.606-5.639,27.228-14.737,37.863-27.292l0.386-0.673c0.509-1.412,1.601-1.986,3.267-1.73c1.216,1.024,1.567,2.243,1.055,3.652
		l-0.383,1.056c-11.018,13.646-25.083,23.544-42.188,29.694h-1.44c-1.924,0-2.884-0.962-2.884-2.881V36.939z"/>
	<path style="fill:#898989;" d="M357.121,34.825c1.475,0,2.211,0.704,2.211,2.114v70.633c14.606-5.639,27.228-14.737,37.863-27.292
		l0.386-0.673c0.432-1.194,1.28-1.79,2.539-1.79c0.23,0,0.471,0.021,0.728,0.06c1.216,1.024,1.567,2.243,1.055,3.652l-0.383,1.056
		c-11.018,13.646-25.083,23.544-42.188,29.694h-1.44c-1.924,0-2.884-0.962-2.884-2.881V36.939
		C355.008,35.529,355.712,34.825,357.121,34.825 M357.121,31.403c-3.311,0-5.535,2.224-5.535,5.536v72.459
		c0,3.828,2.473,6.306,6.306,6.306h1.44h0.598l0.559-0.204c17.627-6.337,32.328-16.688,43.695-30.766l0.357-0.442l0.196-0.535
		l0.383-1.056c1.009-2.772,0.254-5.483-2.066-7.441l-0.737-0.62l-0.952-0.148c-0.424-0.062-0.843-0.096-1.244-0.096
		c-2.568,0-4.652,1.384-5.63,3.723l-0.106,0.186c-9.021,10.584-19.644,18.685-31.63,24.124V36.939
		C362.754,33.627,360.491,31.403,357.121,31.403L357.121,31.403z"/>
</g>
<g>
	<path style="fill:#FFFFFF;" d="M412.688,55.869V36.554c0-1.408,0.703-2.114,2.112-2.114c1.472,0,2.212,0.706,2.212,2.114v9.417
		c0,0.961,0.479,1.442,1.44,1.442h35.364c1.407,0,2.116,0.673,2.116,2.019c0,1.538-0.709,2.305-2.116,2.305h-35.364
		c-0.962,0-1.44,0.481-1.44,1.443v2.689c0,33.442,10.09,50.164,30.269,50.164h2.212c1.407,0,2.113,0.706,2.113,2.113
		c0,1.475-0.706,2.211-2.113,2.211h-2.212C424.089,110.231,412.559,92.069,412.688,55.869z M444.978,36.554
		c0-1.408,0.703-2.114,2.112-2.114c1.472,0,2.212,0.706,2.212,2.114v4.422c0,1.408-0.706,2.113-2.116,2.113
		c-1.474,0-2.208-0.705-2.208-2.113V36.554z M453.626,36.554c0-1.408,0.704-2.114,2.113-2.114c1.472,0,2.211,0.706,2.211,2.114
		v4.422c0,1.408-0.708,2.113-2.115,2.113c-1.475,0-2.209-0.705-2.209-2.113V36.554z"/>
	<path style="fill:#898989;" d="M455.739,34.439c1.472,0,2.211,0.706,2.211,2.114v4.422c0,1.408-0.708,2.113-2.115,2.113
		c-1.475,0-2.209-0.705-2.209-2.113v-4.422C453.626,35.146,454.33,34.439,455.739,34.439 M447.09,34.439
		c1.472,0,2.212,0.706,2.212,2.114v4.422c0,1.408-0.706,2.113-2.116,2.113c-1.474,0-2.208-0.705-2.208-2.113v-4.422
		C444.978,35.146,445.681,34.439,447.09,34.439 M414.801,34.439c1.472,0,2.212,0.706,2.212,2.114v9.417
		c0,0.961,0.479,1.442,1.44,1.442h35.364c1.407,0,2.116,0.673,2.116,2.019c0,1.538-0.709,2.305-2.116,2.305h-35.364
		c-0.962,0-1.44,0.481-1.44,1.443v2.689c0,33.442,10.09,50.164,30.269,50.164h2.212c1.407,0,2.113,0.706,2.113,2.113
		c0,1.475-0.706,2.211-2.113,2.211h-2.212c-23.192-0.126-34.723-18.288-34.593-54.488V36.554
		C412.688,35.146,413.392,34.439,414.801,34.439 M455.739,31.018c-1.82,0-3.313,0.673-4.286,1.829
		c-0.993-1.156-2.511-1.829-4.363-1.829c-3.312,0-5.537,2.226-5.537,5.536v4.422c0,1.152,0.276,2.174,0.776,3.015h-21.897v-7.437
		c0-3.311-2.261-5.536-5.631-5.536c-3.312,0-5.537,2.226-5.537,5.536v19.315c-0.067,18.667,2.99,33.003,9.086,42.604
		c6.404,10.087,16.132,15.236,28.914,15.306h2.229c3.311,0,5.535-2.263,5.535-5.633c0-3.311-2.225-5.535-5.535-5.535h-2.212
		c-18.065,0-26.85-15.291-26.85-46.742v-0.71h33.386c3.311,0,5.538-2.303,5.538-5.728c0-1.341-0.381-2.502-1.059-3.402
		c1.906-0.825,3.073-2.653,3.073-5.054v-4.422C461.37,33.243,459.109,31.018,455.739,31.018L455.739,31.018z"/>
</g>
<g>
	<g>
		<path style="fill:#FFFFFF;" d="M47.309,25.189h4.181v4.133h3.825v-4.133H59.5v12.512h-4.185v-4.188H51.49v4.188h-4.181V25.189z"/>
		<path style="fill:#FFFFFF;" d="M64.999,29.338h-3.682v-4.149h11.547v4.149H69.18v8.363h-4.181V29.338L64.999,29.338z"/>
		<path style="fill:#FFFFFF;" d="M74.699,25.189h4.362l2.681,4.397l2.684-4.397h4.359v12.512h-4.164v-6.2l-2.879,4.447h-0.071
			l-2.879-4.447v6.2h-4.093V25.189z"/>
		<path style="fill:#FFFFFF;" d="M90.868,25.189h4.184v8.376h5.883v4.136H90.868V25.189z"/>
	</g>
	<path style="fill:#FFFFFF;" d="M63.267,73.564h10.867v-8.429H62.513L63.267,73.564z M41.278,43.189l5.982,67.106l26.856,7.457
		l26.881-7.455l5.99-67.108H41.278z M95.872,106.025l-21.738,6.026v-8.54l-0.013,0.005L57.26,98.835l-1.178-13.217h8.261
		l0.614,6.859l9.165,2.473l0.012-0.002V81.799H55.74l-2.22-24.893h20.614v-8.229h26.856L95.872,106.025z"/>
	<path style="opacity:0.8;fill:#FFFFFF;enable-background:new    ;" d="M84.265,81.799H74.134v13.149l9.177-2.476L84.265,81.799z
		 M74.134,48.677v8.229h20.614l-0.737,8.229H74.134v8.429h19.128l-2.259,25.271l-16.869,4.677v8.54l21.738-6.026l5.118-57.349
		H74.134L74.134,48.677z"/>
	<g style="opacity:0.2;">
		<polygon style="fill:#FFFFFF;" points="74.134,56.906 53.52,56.906 55.74,81.799 74.134,81.799 74.134,73.564 63.267,73.564 
			62.513,65.136 74.134,65.136 		"/>
		<polygon style="fill:#FFFFFF;" points="74.134,94.948 74.122,94.95 64.957,92.478 64.343,85.618 56.082,85.618 57.26,98.835 
			74.121,103.517 74.134,103.512 		"/>
	</g>
</g>
</svg>
