<?xml version="1.0" encoding="iso-8859-1"?>
<!-- Generator: Adobe Illustrator 16.2.1, SVG Export Plug-In . SVG Version: 6.00 Build 0)  -->
<!DOCTYPE svg PUBLIC "-//W3C//DTD SVG 1.1//EN" "http://www.w3.org/Graphics/SVG/1.1/DTD/svg11.dtd">
<svg version="1.1" id="&#x30EC;&#x30A4;&#x30E4;&#x30FC;_1"
	 xmlns="http://www.w3.org/2000/svg" xmlns:xlink="http://www.w3.org/1999/xlink" x="0px" y="0px" width="221.541px"
	 height="80.563px" viewBox="0 0 221.541 80.563" style="enable-background:new 0 0 221.541 80.563;" xml:space="preserve">
<path style="fill:#E60012;stroke:#E60012;stroke-width:5;stroke-miterlimit:10;" d="M219.041,60.063c0,9.941-8.06,18-18,18H20.5
	c-9.941,0-18-8.059-18-18V20.5c0-9.94,8.059-18,18-18h180.541c9.94,0,18,8.06,18,18V60.063z"/>
<circle style="fill:#FFFFFF;" cx="50.798" cy="40.692" r="24.812"/>
<g>
	<path style="fill:#FFFFFF;" d="M112.313,41.63c3.339,1.323,5.041,4.473,6.175,9.137c1.26,5.229,2.646,11.719,3.592,13.609h-11.469
		c-0.629-1.387-1.889-5.734-2.961-11.468c-1.071-5.924-2.771-7.497-6.49-7.497h-2.142v18.965H87.991V16.362
		c3.402-0.567,8.128-1.008,13.169-1.008c6.49,0,19.218,0.692,19.218,14.051c0,5.733-3.591,10.208-8.064,11.973V41.63z
		 M101.916,37.219c4.663,0,7.373-2.898,7.373-6.868c0-5.545-4.096-6.616-6.68-6.616c-1.764,0-2.961,0.126-3.591,0.315v13.169
		H101.916z"/>
	<path style="fill:#FFFFFF;" d="M155.405,64.376h-27.662V15.669h26.718v9.262h-15.626v9.768h14.807v9.074h-14.807v11.342h16.57
		V64.376z"/>
	<path style="fill:#FFFFFF;" d="M193.143,63.367c-1.701,0.757-5.481,1.64-10.271,1.64c-15.437,0-22.746-10.774-22.746-24.26
		c0-17.453,11.342-25.708,23.881-25.708c4.915,0,8.318,1.008,9.705,1.764l-2.018,9.011c-1.639-0.756-3.969-1.449-7.057-1.449
		c-6.995,0-12.854,4.789-12.854,15.753c0,10.146,5.04,15.438,12.917,15.438c2.521,0,5.355-0.506,7.058-1.136L193.143,63.367z"/>
</g>
</svg>
